<mxfile host="app.diagrams.net" agent="Mozilla/5.0 (Windows NT 10.0; Win64; x64) AppleWebKit/537.36 (KHTML, like Gecko) Chrome/131.0.0.0 Safari/537.36" version="26.0.6">
  <diagram name="Page-1" id="QC9yKUHSVdJszWJHRedK">
    <mxGraphModel dx="5854" dy="3257" grid="1" gridSize="10" guides="1" tooltips="1" connect="1" arrows="1" fold="1" page="1" pageScale="1" pageWidth="827" pageHeight="1169" math="0" shadow="0">
      <root>
        <mxCell id="0" />
        <mxCell id="1" parent="0" />
        <mxCell id="V3Klhoetvg5E4My4-97I-1" value="" style="rounded=1;whiteSpace=wrap;html=1;strokeColor=#007FFF;dashed=1;fillColor=none;strokeWidth=3;" vertex="1" parent="1">
          <mxGeometry x="-1200" y="515" width="260" height="470" as="geometry" />
        </mxCell>
        <mxCell id="V3Klhoetvg5E4My4-97I-2" value="&lt;font face=&quot;Verdana&quot; style=&quot;font-size: 24px;&quot;&gt;Client&lt;/font&gt;" style="text;html=1;align=center;verticalAlign=middle;whiteSpace=wrap;rounded=0;" vertex="1" parent="1">
          <mxGeometry x="-1160" y="510" width="200" height="30" as="geometry" />
        </mxCell>
        <mxCell id="V3Klhoetvg5E4My4-97I-3" value="&lt;font style=&quot;font-size: 24px;&quot; face=&quot;Verdana&quot;&gt;Web&lt;/font&gt;" style="ellipse;whiteSpace=wrap;html=1;" vertex="1" parent="1">
          <mxGeometry x="-1115" y="735" width="110" height="100" as="geometry" />
        </mxCell>
        <mxCell id="V3Klhoetvg5E4My4-97I-4" value="&lt;font face=&quot;Verdana&quot; style=&quot;font-size: 24px;&quot;&gt;Backend services&lt;/font&gt;" style="text;html=1;align=center;verticalAlign=middle;whiteSpace=wrap;rounded=0;" vertex="1" parent="1">
          <mxGeometry x="460" y="250" width="320" height="30" as="geometry" />
        </mxCell>
        <mxCell id="V3Klhoetvg5E4My4-97I-5" value="" style="rounded=1;whiteSpace=wrap;html=1;align=left;dashed=1;strokeColor=#007FFF;strokeWidth=3;" vertex="1" parent="1">
          <mxGeometry x="-170" y="320" width="1300" height="740" as="geometry" />
        </mxCell>
        <mxCell id="V3Klhoetvg5E4My4-97I-6" value="" style="rounded=0;whiteSpace=wrap;html=1;fillColor=none;" vertex="1" parent="1">
          <mxGeometry x="-50" y="390.08" width="440" height="269.84" as="geometry" />
        </mxCell>
        <mxCell id="V3Klhoetvg5E4My4-97I-7" style="edgeStyle=orthogonalEdgeStyle;rounded=0;orthogonalLoop=1;jettySize=auto;html=1;entryX=0;entryY=0.5;entryDx=0;entryDy=0;startArrow=classic;startFill=1;endArrow=none;endFill=0;strokeWidth=3;exitX=0.5;exitY=1;exitDx=0;exitDy=0;" edge="1" parent="1" target="V3Klhoetvg5E4My4-97I-8" source="V3Klhoetvg5E4My4-97I-12">
          <mxGeometry relative="1" as="geometry">
            <mxPoint x="-470" y="1000" as="sourcePoint" />
            <Array as="points">
              <mxPoint x="-455" y="1021" />
              <mxPoint x="-337" y="1021" />
              <mxPoint x="-337" y="1417" />
            </Array>
          </mxGeometry>
        </mxCell>
        <mxCell id="V3Klhoetvg5E4My4-97I-8" value="" style="editableCssRules=.*;html=1;shape=image;verticalLabelPosition=bottom;labelBackgroundColor=#ffffff;verticalAlign=top;aspect=fixed;imageAspect=0;image=data:image/svg+xml,PHN2ZyB4bWxucz0iaHR0cDovL3d3dy53My5vcmcvMjAwMC9zdmciIHhtbG5zOnY9Imh0dHBzOi8vdmVjdGEuaW8vbmFubyIgd2lkdGg9IjIwIiBoZWlnaHQ9IjE5IiB2aWV3Qm94PSIwIDAgMjAgMTkiPiYjeGE7CTxzdHlsZSB0eXBlPSJ0ZXh0L2NzcyI+JiN4YTsJLnN0MHtmaWxsOiM0Mjg1ZjQ7fSYjeGE7CS5zdDF7ZmlsbDojNjY5ZGY2O30mI3hhOwkuc3Qye2ZpbGw6I2FlY2JmYTt9JiN4YTsJPC9zdHlsZT4mI3hhOwk8ZyBjbGFzcz0ic3QwIj4mI3hhOwkJPHBhdGggZD0iTTQgOWg0djJINHptLTIgN2g2djJIMnoiLz4mI3hhOwkJPHBhdGggZD0iTTQgNEgydjEyaDJ6Ii8+JiN4YTsJPC9nPiYjeGE7CTxwYXRoIGNsYXNzPSJzdDEiIGQ9Ik0yMCAxSDd2NGgxM3ptMCA3SDd2NGgxM3ptMCA3SDd2NGgxM3oiLz4mI3hhOwk8cGF0aCBjbGFzcz0ic3QyIiBkPSJNNiAwSDB2Nmg2eiIvPiYjeGE7PC9zdmc+;" vertex="1" parent="1">
          <mxGeometry x="-296" y="1387.61" width="61" height="57.95" as="geometry" />
        </mxCell>
        <mxCell id="V3Klhoetvg5E4My4-97I-9" value="" style="image;aspect=fixed;html=1;points=[];align=center;fontSize=12;image=img/lib/azure2/devops/Application_Insights.svg;" vertex="1" parent="1">
          <mxGeometry x="-75" y="1377.56" width="50.49" height="72.3" as="geometry" />
        </mxCell>
        <mxCell id="V3Klhoetvg5E4My4-97I-10" style="edgeStyle=orthogonalEdgeStyle;rounded=0;orthogonalLoop=1;jettySize=auto;html=1;exitX=1;exitY=0.5;exitDx=0;exitDy=0;entryX=0;entryY=0.532;entryDx=0;entryDy=0;entryPerimeter=0;endArrow=none;endFill=0;startArrow=classic;startFill=1;strokeWidth=3;" edge="1" parent="1" source="V3Klhoetvg5E4My4-97I-8" target="V3Klhoetvg5E4My4-97I-9">
          <mxGeometry relative="1" as="geometry" />
        </mxCell>
        <mxCell id="V3Klhoetvg5E4My4-97I-11" style="edgeStyle=orthogonalEdgeStyle;rounded=0;orthogonalLoop=1;jettySize=auto;html=1;exitX=0.19;exitY=1.004;exitDx=0;exitDy=0;entryX=0.99;entryY=0.504;entryDx=0;entryDy=0;entryPerimeter=0;strokeWidth=3;exitPerimeter=0;" edge="1" parent="1" target="V3Klhoetvg5E4My4-97I-9" source="V3Klhoetvg5E4My4-97I-5">
          <mxGeometry relative="1" as="geometry">
            <mxPoint x="315" y="1260" as="sourcePoint" />
          </mxGeometry>
        </mxCell>
        <mxCell id="V3Klhoetvg5E4My4-97I-12" value="&lt;font face=&quot;Verdana&quot; style=&quot;font-size: 24px;&quot;&gt;API Gateway&lt;/font&gt;" style="rounded=0;whiteSpace=wrap;html=1;" vertex="1" parent="1">
          <mxGeometry x="-520" y="530" width="130" height="440" as="geometry" />
        </mxCell>
        <mxCell id="V3Klhoetvg5E4My4-97I-13" value="" style="endArrow=classic;html=1;rounded=0;exitX=1;exitY=0.5;exitDx=0;exitDy=0;entryX=0;entryY=0.5;entryDx=0;entryDy=0;strokeWidth=3;" edge="1" parent="1" source="V3Klhoetvg5E4My4-97I-12">
          <mxGeometry width="50" height="50" relative="1" as="geometry">
            <mxPoint x="-300" y="520" as="sourcePoint" />
            <mxPoint x="-180" y="750" as="targetPoint" />
          </mxGeometry>
        </mxCell>
        <mxCell id="V3Klhoetvg5E4My4-97I-14" value="" style="endArrow=classic;html=1;rounded=0;exitX=1;exitY=0.5;exitDx=0;exitDy=0;strokeWidth=3;entryX=0;entryY=0.5;entryDx=0;entryDy=0;" edge="1" parent="1" source="V3Klhoetvg5E4My4-97I-1" target="V3Klhoetvg5E4My4-97I-12">
          <mxGeometry relative="1" as="geometry">
            <mxPoint x="-540" y="414" as="sourcePoint" />
            <mxPoint x="170" y="520" as="targetPoint" />
          </mxGeometry>
        </mxCell>
        <mxCell id="V3Klhoetvg5E4My4-97I-15" value="" style="image;aspect=fixed;html=1;points=[];align=center;fontSize=12;image=img/lib/azure2/security/Key_Vaults.svg;" vertex="1" parent="1">
          <mxGeometry x="-502.00000000000006" y="1740" width="88" height="88" as="geometry" />
        </mxCell>
        <mxCell id="V3Klhoetvg5E4My4-97I-16" value="&lt;font style=&quot;font-size: 24px;&quot; face=&quot;Verdana&quot;&gt;Key Vaults&lt;/font&gt;" style="text;html=1;align=center;verticalAlign=middle;whiteSpace=wrap;rounded=0;" vertex="1" parent="1">
          <mxGeometry x="-537.17" y="1700" width="164.35" height="30" as="geometry" />
        </mxCell>
        <mxCell id="V3Klhoetvg5E4My4-97I-17" value="" style="image;aspect=fixed;html=1;points=[];align=center;fontSize=12;image=img/lib/azure2/containers/App_Services.svg;" vertex="1" parent="1">
          <mxGeometry x="-205" y="1727" width="101" height="101" as="geometry" />
        </mxCell>
        <mxCell id="V3Klhoetvg5E4My4-97I-18" value="&lt;font face=&quot;Verdana&quot;&gt;&lt;span style=&quot;font-size: 24px;&quot;&gt;App Service(Hosting)&lt;/span&gt;&lt;/font&gt;" style="text;html=1;align=center;verticalAlign=middle;whiteSpace=wrap;rounded=0;" vertex="1" parent="1">
          <mxGeometry x="-296" y="1690.25" width="283" height="30" as="geometry" />
        </mxCell>
        <mxCell id="V3Klhoetvg5E4My4-97I-19" value="&lt;font style=&quot;font-size: 18px;&quot; face=&quot;Verdana&quot;&gt;SquadGame&lt;/font&gt;" style="whiteSpace=wrap;html=1;aspect=fixed;" vertex="1" parent="1">
          <mxGeometry x="110" y="450" width="150" height="150" as="geometry" />
        </mxCell>
        <mxCell id="V3Klhoetvg5E4My4-97I-20" style="edgeStyle=orthogonalEdgeStyle;rounded=0;orthogonalLoop=1;jettySize=auto;html=1;entryX=0.5;entryY=0;entryDx=0;entryDy=0;entryPerimeter=0;dashed=1;strokeWidth=7;strokeColor=#b85450;startArrow=classic;startFill=1;fillColor=#f8cecc;exitX=0.5;exitY=1;exitDx=0;exitDy=0;" edge="1" parent="1">
          <mxGeometry relative="1" as="geometry">
            <mxPoint x="183.75" y="68" as="sourcePoint" />
            <mxPoint x="183.75" y="450" as="targetPoint" />
          </mxGeometry>
        </mxCell>
        <mxCell id="V3Klhoetvg5E4My4-97I-21" value="&lt;font style=&quot;font-size: 18px;&quot; face=&quot;Verdana&quot;&gt;3rd party Api&lt;/font&gt;" style="whiteSpace=wrap;html=1;aspect=fixed;" vertex="1" parent="1">
          <mxGeometry x="110" y="-70" width="150" height="150" as="geometry" />
        </mxCell>
        <mxCell id="V3Klhoetvg5E4My4-97I-22" value="&lt;font style=&quot;font-size: 24px;&quot; face=&quot;Verdana&quot;&gt;Logging&lt;/font&gt;" style="text;html=1;align=center;verticalAlign=middle;whiteSpace=wrap;rounded=0;" vertex="1" parent="1">
          <mxGeometry x="-296" y="1340" width="60" height="30" as="geometry" />
        </mxCell>
        <mxCell id="V3Klhoetvg5E4My4-97I-23" value="&lt;font style=&quot;font-size: 24px;&quot; face=&quot;Verdana&quot;&gt;Application Insights&lt;/font&gt;" style="text;html=1;align=center;verticalAlign=middle;whiteSpace=wrap;rounded=0;" vertex="1" parent="1">
          <mxGeometry x="-196" y="1340" width="270" height="30" as="geometry" />
        </mxCell>
        <mxCell id="V3Klhoetvg5E4My4-97I-24" value="" style="rounded=0;whiteSpace=wrap;html=1;fillColor=none;" vertex="1" parent="1">
          <mxGeometry x="550" y="390.08" width="440" height="269.84" as="geometry" />
        </mxCell>
        <mxCell id="V3Klhoetvg5E4My4-97I-25" value="" style="rounded=0;whiteSpace=wrap;html=1;fillColor=none;" vertex="1" parent="1">
          <mxGeometry x="-35" y="730" width="440" height="269.84" as="geometry" />
        </mxCell>
        <mxCell id="V3Klhoetvg5E4My4-97I-26" value="" style="rounded=0;whiteSpace=wrap;html=1;fillColor=none;" vertex="1" parent="1">
          <mxGeometry x="560" y="735" width="440" height="269.84" as="geometry" />
        </mxCell>
        <mxCell id="V3Klhoetvg5E4My4-97I-27" value="" style="rounded=0;whiteSpace=wrap;html=1;fillColor=none;" vertex="1" parent="1">
          <mxGeometry x="2157.52" y="-947" width="320" height="1167" as="geometry" />
        </mxCell>
        <mxCell id="V3Klhoetvg5E4My4-97I-28" value="&lt;font face=&quot;Verdana&quot; style=&quot;font-size: 36px;&quot;&gt;Pipelines Workflow&lt;/font&gt;" style="text;html=1;align=center;verticalAlign=middle;whiteSpace=wrap;rounded=0;" vertex="1" parent="1">
          <mxGeometry x="2081.7000000000003" y="-990" width="475.68" height="30" as="geometry" />
        </mxCell>
        <mxCell id="V3Klhoetvg5E4My4-97I-30" value="&lt;font style=&quot;font-size: 24px;&quot; face=&quot;Verdana&quot;&gt;Build&amp;amp;Push&amp;amp;Test Backend&lt;/font&gt;" style="ellipse;whiteSpace=wrap;html=1;fillColor=none;" vertex="1" parent="1">
          <mxGeometry x="2180.2799999999997" y="-469.99999999999994" width="278.53" height="170" as="geometry" />
        </mxCell>
        <mxCell id="V3Klhoetvg5E4My4-97I-31" value="&lt;span style=&quot;font-family: Verdana; font-size: 24px;&quot;&gt;Build&amp;amp;Push&amp;amp;Test Frontend&lt;/span&gt;" style="ellipse;whiteSpace=wrap;html=1;fillColor=none;" vertex="1" parent="1">
          <mxGeometry x="2180.28" y="-689.9999999999999" width="278.53" height="170" as="geometry" />
        </mxCell>
        <mxCell id="V3Klhoetvg5E4My4-97I-32" value="&lt;span style=&quot;font-family: Verdana; font-size: 24px;&quot;&gt;Release&amp;amp;Patch version&lt;/span&gt;" style="ellipse;whiteSpace=wrap;html=1;fillColor=none;" vertex="1" parent="1">
          <mxGeometry x="2187.9700000000003" y="-249.99999999999994" width="278.53" height="170" as="geometry" />
        </mxCell>
        <mxCell id="V3Klhoetvg5E4My4-97I-34" value="&lt;span style=&quot;font-family: Verdana; font-size: 24px;&quot;&gt;Upload Backend Services (download artifacts &amp;amp; upload to Azure)&lt;/span&gt;" style="ellipse;whiteSpace=wrap;html=1;fillColor=none;" vertex="1" parent="1">
          <mxGeometry x="2180.2700000000004" y="5.684341886080802e-14" width="278.53" height="170" as="geometry" />
        </mxCell>
        <mxCell id="V3Klhoetvg5E4My4-97I-35" value="&lt;font style=&quot;font-size: 24px;&quot; face=&quot;Verdana&quot;&gt;reset dependencies&amp;amp;restore packages for the project(NuGet FM)&lt;/font&gt;" style="ellipse;whiteSpace=wrap;html=1;fillColor=none;" vertex="1" parent="1">
          <mxGeometry x="2180.2799999999997" y="-890" width="278.53" height="170" as="geometry" />
        </mxCell>
        <mxCell id="V3Klhoetvg5E4My4-97I-36" value="" style="image;sketch=0;aspect=fixed;html=1;points=[];align=center;fontSize=12;image=img/lib/mscae/Azure_Pipelines.svg;" vertex="1" parent="1">
          <mxGeometry x="1940" y="-930" width="170" height="170" as="geometry" />
        </mxCell>
        <mxCell id="V3Klhoetvg5E4My4-97I-38" value="" style="rounded=1;whiteSpace=wrap;html=1;fillColor=none;strokeColor=#3399FF;strokeWidth=3;dashed=1;" vertex="1" parent="1">
          <mxGeometry x="1530.28" y="548.7299999999999" width="650" height="302.55" as="geometry" />
        </mxCell>
        <mxCell id="V3Klhoetvg5E4My4-97I-39" value="" style="image;sketch=0;aspect=fixed;html=1;points=[];align=center;fontSize=12;image=img/lib/mscae/Azure_Pipelines.svg;" vertex="1" parent="1">
          <mxGeometry x="1640.0000000000002" y="647.4799999999999" width="98.73" height="98.73" as="geometry" />
        </mxCell>
        <mxCell id="V3Klhoetvg5E4My4-97I-40" value="" style="image;sketch=0;aspect=fixed;html=1;points=[];align=center;fontSize=12;image=img/lib/mscae/Azure_Repos.svg;" vertex="1" parent="1">
          <mxGeometry x="1830.0000000000002" y="637.4799999999999" width="97.86" height="108.73" as="geometry" />
        </mxCell>
        <mxCell id="V3Klhoetvg5E4My4-97I-41" value="" style="image;aspect=fixed;html=1;points=[];align=center;fontSize=12;image=img/lib/azure2/general/Dashboard.svg;" vertex="1" parent="1">
          <mxGeometry x="2022.7000000000003" y="642.4799999999999" width="134.82" height="95.17" as="geometry" />
        </mxCell>
        <mxCell id="V3Klhoetvg5E4My4-97I-42" value="&lt;font style=&quot;font-size: 24px;&quot; face=&quot;Verdana&quot;&gt;Azure Devops&lt;/font&gt;" style="text;html=1;align=center;verticalAlign=middle;whiteSpace=wrap;rounded=0;fillColor=default;" vertex="1" parent="1">
          <mxGeometry x="1554.6399999999996" y="528.7299999999999" width="250" height="30" as="geometry" />
        </mxCell>
        <mxCell id="V3Klhoetvg5E4My4-97I-43" style="rounded=0;orthogonalLoop=1;jettySize=auto;html=1;exitX=0;exitY=0.5;exitDx=0;exitDy=0;fillColor=#f8cecc;strokeColor=#b85450;strokeWidth=6;dashed=1;entryX=1;entryY=0.5;entryDx=0;entryDy=0;entryPerimeter=0;" edge="1" parent="1" target="V3Klhoetvg5E4My4-97I-44">
          <mxGeometry relative="1" as="geometry">
            <mxPoint x="1450" y="696" as="targetPoint" />
            <mxPoint x="1530" y="697.6" as="sourcePoint" />
          </mxGeometry>
        </mxCell>
        <mxCell id="V3Klhoetvg5E4My4-97I-44" value="" style="verticalLabelPosition=bottom;html=1;verticalAlign=top;align=center;strokeColor=none;fillColor=#00BEF2;shape=mxgraph.azure.github_code;pointerEvents=1;" vertex="1" parent="1">
          <mxGeometry x="1290" y="651.84" width="88.18" height="90" as="geometry" />
        </mxCell>
        <mxCell id="V3Klhoetvg5E4My4-97I-45" style="rounded=0;orthogonalLoop=1;jettySize=auto;html=1;fillColor=#f8cecc;strokeColor=#b85450;strokeWidth=6;dashed=1;" edge="1" parent="1">
          <mxGeometry relative="1" as="geometry">
            <mxPoint x="1130" y="699.21" as="targetPoint" />
            <mxPoint x="1290" y="699" as="sourcePoint" />
          </mxGeometry>
        </mxCell>
      </root>
    </mxGraphModel>
  </diagram>
</mxfile>
